<?xml version="1.0" encoding="utf-8"?>
<!-- Generator: Adobe Illustrator 25.3.1, SVG Export Plug-In . SVG Version: 6.00 Build 0)  -->
<svg version="1.1" id="Layer_1" xmlns="http://www.w3.org/2000/svg" xmlns:xlink="http://www.w3.org/1999/xlink" x="0px" y="0px"
	 viewBox="0 0 168.81 41.57" style="enable-background:new 0 0 168.81 41.57;" xml:space="preserve">
<style type="text/css">
	.st0{fill:#00A1F1;}
	.st1{fill:#FABA05;}
	.st2{fill:#F65314;}
	.st3{fill:#7CBB00;}
	.st4{fill:#FFBB00;}
	.st5{fill:#11110D;}
</style>
<g>
	<g>
		<g>
			<path class="st0" d="M6.04,25.2c-1.36,0-2.28-0.38-2.75-1.15c-0.39-0.62-0.47-1.47-0.23-2.53l2.7-12.25
				c0.26-1.1,0.75-1.97,1.48-2.59c0.82-0.73,1.87-1.09,3.15-1.09h1.06L7.09,25.2H6.04z M17.2,24.16c0.77-0.64,1.27-1.52,1.52-2.65
				l0.56-2.47h-4.76l-0.42,1.8c-0.06,0.19-0.18,0.29-0.36,0.29H9.19L8.27,25.2h5.84C15.37,25.2,16.4,24.85,17.2,24.16z M16.53,9.94
				l-0.42,1.83h4.77l0.56-2.5c0.25-1.18,0.11-2.09-0.42-2.73c-0.53-0.63-1.38-0.95-2.56-0.95h-5.82l-0.92,4.07h4.56
				C16.5,9.65,16.58,9.75,16.53,9.94z"/>
		</g>
		<g>
			<path class="st0" d="M50.86,25.2h-5.8l0.91-4.07h4.18c0.17,0,0.29-0.1,0.36-0.29l2.4-10.9c0.07-0.19-0.01-0.29-0.23-0.29h-5.36
				L43.88,25.2h-4.86l4.36-19.62h11.84c0.99,0,1.74,0.35,2.27,1.04c0.55,0.7,0.7,1.53,0.47,2.5l-2.78,12.54
				c-0.23,0.99-0.73,1.8-1.5,2.44C52.85,24.84,51.9,25.2,50.86,25.2z"/>
			<path class="st0" d="M65.2,9.65l-2.53,11.48h9.72l-0.91,4.07H56.91l4.36-19.62h14.55L74.9,9.65H65.2z M72.28,17.33h-7.61
				l0.92-4.06h7.59L72.28,17.33z"/>
			<path class="st0" d="M82.8,18.69l-3.42,6.51h-0.2L76.4,5.58h4.95L82.8,18.69z M84.83,25.2h-4.21L91.24,5.58h5.25L84.83,25.2z"/>
			<path class="st0" d="M102.41,5.58L98.05,25.2h-4.86l4.36-19.62H102.41z"/>
			<path class="st0" d="M111.31,21.16l-0.91,4.04h-5.62c-1.36,0-2.28-0.38-2.75-1.15c-0.39-0.62-0.47-1.47-0.23-2.53l0.47-2.19h4.76
				l-0.32,1.54c-0.06,0.19,0.02,0.29,0.23,0.29H111.31z M112.76,25.2h-1.18l1.52-6.83c0.04-0.24-0.04-0.37-0.23-0.39l-4.77-1.02
				c-0.15-0.05-0.46-0.12-0.91-0.2c-0.46-0.09-0.76-0.15-0.91-0.19c-0.15-0.04-0.41-0.11-0.76-0.22c-0.35-0.11-0.6-0.22-0.74-0.32
				c-0.14-0.11-0.31-0.26-0.52-0.45c-0.21-0.2-0.33-0.41-0.38-0.65c-0.05-0.23-0.08-0.52-0.09-0.87c-0.01-0.35,0.03-0.73,0.13-1.16
				l0.81-3.62c0.25-1.1,0.74-1.97,1.47-2.59c0.82-0.73,1.87-1.09,3.15-1.09h1.01l-1.51,6.72c-0.04,0.24,0.03,0.37,0.22,0.39
				l4.82,0.96c0.14,0.02,0.39,0.06,0.73,0.14c0.34,0.07,0.58,0.12,0.73,0.15c0.15,0.03,0.37,0.08,0.67,0.16
				c0.3,0.08,0.51,0.14,0.65,0.2c0.13,0.06,0.31,0.15,0.52,0.27c0.22,0.12,0.37,0.24,0.46,0.37c0.09,0.13,0.19,0.29,0.31,0.47
				c0.12,0.18,0.19,0.38,0.22,0.6c0.03,0.22,0.04,0.48,0.03,0.77c-0.01,0.29-0.06,0.61-0.14,0.94l-0.82,3.8
				c-0.26,1.12-0.77,2-1.54,2.65C114.89,24.85,113.91,25.2,112.76,25.2z M114.81,9.63h-4.21l0.92-4.04h5.41
				c1.18,0,2.04,0.32,2.57,0.95c0.53,0.64,0.66,1.55,0.4,2.73l-0.46,2.16h-4.72l0.32-1.51C115.11,9.72,115.03,9.63,114.81,9.63z"/>
			<path class="st0" d="M127.62,5.58l-4.36,19.62h-4.86l4.36-19.62H127.62z"/>
			<path class="st0" d="M138.73,25.2h-6.43l0.92-4.07h5.06c0.18,0,0.3-0.1,0.36-0.29l2.42-10.9c0.06-0.19-0.02-0.29-0.24-0.29h-5.94
				c-0.18,0-0.3,0.1-0.36,0.29l-3.39,15.26h-1.05c-1.36,0-2.28-0.38-2.75-1.15c-0.39-0.62-0.47-1.47-0.23-2.53l2.7-12.25
				c0.26-1.1,0.75-1.97,1.48-2.59c0.82-0.73,1.87-1.09,3.15-1.09h8.66c1.18,0,2.03,0.32,2.56,0.95c0.53,0.64,0.67,1.55,0.42,2.73
				l-2.72,12.25c-0.25,1.12-0.76,2-1.52,2.65C141.02,24.85,139.99,25.2,138.73,25.2z"/>
			<path class="st0" d="M149.04,5.58h4.69l-4.37,19.62h-4.67L149.04,5.58z M156.85,25.2l-4.18-9.61l1.91-8.57l4.1,9.91l2.53-11.35
				h4.67l-4.36,19.62H156.85z"/>
		</g>
		<g>
			<g>
				<path class="st2" d="M28.75,9.64l-3.46,15.58h-1.05c-1.36,0-2.28-0.38-2.75-1.15c-0.39-0.62-0.47-1.47-0.23-2.53l2.64-11.9"/>
			</g>
			<g>
				<path class="st3" d="M40.07,9.64l-2.55,11.9c-0.25,1.12-0.76,2-1.52,2.65c-0.81,0.69-1.84,1.04-3.09,1.04h-6.43l0.92-4.07h5.06
					c0.18,0,0.3-0.1,0.36-0.29l2.38-11.23"/>
			</g>
			<path class="st4" d="M37.74,5.53c3.23,0.17,2.64,3.2,2.33,4.11H23.9c0.74-3.88,3.64-4.08,4.38-4.11v0"/>
		</g>
	</g>
	<g>
		<path class="st5" d="M5.99,36.81H4.96v-5.4H3.12v-0.88h4.72v0.88H5.99V36.81z"/>
		<path class="st5" d="M13.04,36.81H9.49v-6.28h3.55v0.87h-2.53v1.71h2.37v0.86h-2.37v1.97h2.53V36.81z"/>
		<path class="st5" d="M17.76,31.31c-0.59,0-1.05,0.21-1.39,0.63c-0.34,0.42-0.51,1-0.51,1.73c0,0.77,0.16,1.35,0.49,1.75
			c0.33,0.4,0.8,0.59,1.41,0.59c0.27,0,0.52-0.03,0.77-0.08c0.25-0.05,0.51-0.12,0.78-0.2v0.88c-0.49,0.19-1.05,0.28-1.68,0.28
			c-0.92,0-1.63-0.28-2.12-0.84c-0.49-0.56-0.74-1.35-0.74-2.39c0-0.65,0.12-1.22,0.36-1.71c0.24-0.49,0.59-0.87,1.04-1.13
			c0.45-0.26,0.98-0.39,1.59-0.39c0.64,0,1.23,0.13,1.78,0.4l-0.37,0.86c-0.21-0.1-0.44-0.19-0.67-0.26
			C18.27,31.35,18.02,31.31,17.76,31.31z"/>
		<path class="st5" d="M26.31,36.81h-1.03v-2.83h-2.9v2.83h-1.03v-6.28h1.03v2.57h2.9v-2.57h1.03V36.81z"/>
		<path class="st5" d="M33.88,36.81h-1.26l-3.09-5.01H29.5l0.02,0.28c0.04,0.53,0.06,1.02,0.06,1.46v3.27h-0.93v-6.28h1.25
			l3.08,4.98H33c-0.01-0.07-0.02-0.31-0.03-0.72c-0.02-0.41-0.03-0.74-0.03-0.97v-3.29h0.94V36.81z"/>
		<path class="st5" d="M41.81,33.66c0,1.02-0.26,1.82-0.77,2.39c-0.51,0.57-1.24,0.85-2.17,0.85c-0.95,0-1.68-0.28-2.19-0.84
			c-0.51-0.56-0.76-1.36-0.76-2.4c0-1.04,0.26-1.83,0.77-2.39c0.51-0.56,1.24-0.83,2.19-0.83c0.93,0,1.66,0.28,2.17,0.85
			C41.55,31.84,41.81,32.63,41.81,33.66z M37.01,33.66c0,0.77,0.16,1.36,0.47,1.76c0.31,0.4,0.78,0.6,1.39,0.6
			c0.61,0,1.07-0.2,1.38-0.59c0.31-0.4,0.47-0.98,0.47-1.77c0-0.77-0.15-1.36-0.46-1.75c-0.31-0.4-0.77-0.6-1.38-0.6
			c-0.62,0-1.08,0.2-1.39,0.6C37.17,32.3,37.01,32.89,37.01,33.66z"/>
		<path class="st5" d="M43.84,36.81v-6.28h1.03v5.4h2.66v0.88H43.84z"/>
		<path class="st5" d="M54.88,33.66c0,1.02-0.26,1.82-0.77,2.39c-0.51,0.57-1.24,0.85-2.17,0.85c-0.95,0-1.68-0.28-2.19-0.84
			c-0.51-0.56-0.76-1.36-0.76-2.4c0-1.04,0.26-1.83,0.77-2.39c0.51-0.56,1.24-0.83,2.19-0.83c0.93,0,1.66,0.28,2.17,0.85
			C54.62,31.84,54.88,32.63,54.88,33.66z M50.08,33.66c0,0.77,0.16,1.36,0.47,1.76c0.31,0.4,0.78,0.6,1.39,0.6
			c0.61,0,1.07-0.2,1.38-0.59c0.31-0.4,0.47-0.98,0.47-1.77c0-0.77-0.15-1.36-0.46-1.75c-0.31-0.4-0.77-0.6-1.38-0.6
			c-0.62,0-1.08,0.2-1.39,0.6C50.24,32.3,50.08,32.89,50.08,33.66z"/>
		<path class="st5" d="M59.48,33.4h2.31v3.15c-0.38,0.12-0.74,0.21-1.09,0.26c-0.35,0.05-0.72,0.08-1.13,0.08
			c-0.95,0-1.68-0.28-2.2-0.84s-0.77-1.36-0.77-2.38c0-1.01,0.29-1.8,0.87-2.37c0.58-0.57,1.38-0.86,2.4-0.86
			c0.66,0,1.28,0.13,1.87,0.38l-0.36,0.86c-0.51-0.23-1.02-0.35-1.53-0.35c-0.67,0-1.2,0.21-1.59,0.63c-0.39,0.42-0.58,1-0.58,1.73
			c0,0.77,0.18,1.35,0.53,1.75c0.35,0.4,0.86,0.6,1.51,0.6c0.33,0,0.69-0.04,1.07-0.12v-1.62h-1.3V33.4z"/>
		<path class="st5" d="M63.99,36.81v-6.28h1.03v6.28H63.99z"/>
		<path class="st5" d="M70.92,36.81h-3.55v-6.28h3.55v0.87h-2.53v1.71h2.37v0.86h-2.37v1.97h2.53V36.81z"/>
		<path class="st5" d="M76.59,35.1c0,0.56-0.2,1-0.61,1.32c-0.4,0.32-0.96,0.48-1.67,0.48c-0.71,0-1.29-0.11-1.74-0.33v-0.97
			c0.29,0.13,0.59,0.24,0.91,0.32c0.32,0.08,0.62,0.12,0.9,0.12c0.41,0,0.71-0.08,0.9-0.23c0.19-0.15,0.29-0.36,0.29-0.62
			c0-0.23-0.09-0.43-0.27-0.6c-0.18-0.16-0.54-0.36-1.1-0.58c-0.57-0.23-0.98-0.5-1.21-0.8c-0.23-0.3-0.35-0.66-0.35-1.07
			c0-0.52,0.19-0.94,0.56-1.24c0.37-0.3,0.87-0.45,1.5-0.45c0.6,0,1.2,0.13,1.8,0.4l-0.33,0.84c-0.56-0.23-1.06-0.35-1.5-0.35
			c-0.33,0-0.58,0.07-0.76,0.22c-0.17,0.14-0.26,0.34-0.26,0.57c0,0.16,0.03,0.3,0.1,0.42c0.07,0.12,0.18,0.23,0.34,0.33
			c0.16,0.1,0.44,0.24,0.85,0.41c0.46,0.19,0.8,0.37,1.01,0.54c0.21,0.17,0.37,0.35,0.47,0.56C76.54,34.57,76.59,34.82,76.59,35.1z"
			/>
		<path class="st5" d="M85.62,32.42c0,0.66-0.21,1.16-0.64,1.51c-0.43,0.35-1.04,0.52-1.84,0.52h-0.65v2.35h-1.03v-6.28h1.81
			c0.79,0,1.37,0.16,1.76,0.48C85.43,31.33,85.62,31.8,85.62,32.42z M82.49,33.59h0.55c0.53,0,0.91-0.09,1.16-0.28
			c0.25-0.18,0.37-0.47,0.37-0.86c0-0.36-0.11-0.63-0.33-0.81c-0.22-0.18-0.56-0.27-1.03-0.27h-0.71V33.59z"/>
		<path class="st5" d="M88.59,34.3v2.51h-1.03v-6.28h1.77c0.81,0,1.41,0.15,1.8,0.46c0.39,0.3,0.58,0.76,0.58,1.38
			c0,0.78-0.41,1.34-1.22,1.67l1.77,2.78h-1.17l-1.5-2.51H88.59z M88.59,33.45h0.71c0.48,0,0.83-0.09,1.04-0.27
			c0.21-0.18,0.32-0.44,0.32-0.79c0-0.36-0.12-0.61-0.35-0.77c-0.23-0.15-0.58-0.23-1.05-0.23h-0.68V33.45z"/>
		<path class="st5" d="M93.88,36.81v-6.28h1.03v6.28H93.88z"/>
		<path class="st5" d="M100.83,30.52h1.07l-2.2,6.28h-1.08l-2.19-6.28h1.06l1.31,3.91c0.07,0.19,0.14,0.43,0.22,0.72
			c0.08,0.29,0.13,0.51,0.15,0.66c0.04-0.22,0.09-0.47,0.17-0.76c0.08-0.29,0.14-0.5,0.19-0.64L100.83,30.52z"/>
		<path class="st5" d="M107.31,36.81l-0.63-1.74h-2.4l-0.61,1.74h-1.08l2.35-6.31h1.12l2.35,6.31H107.31z M106.41,34.18l-0.59-1.71
			c-0.04-0.11-0.1-0.3-0.18-0.54c-0.08-0.25-0.13-0.43-0.16-0.54c-0.08,0.35-0.19,0.74-0.34,1.16l-0.57,1.64H106.41z"/>
		<path class="st5" d="M112.09,36.81h-1.03v-5.4h-1.85v-0.88h4.72v0.88h-1.85V36.81z"/>
		<path class="st5" d="M119.14,36.81h-3.55v-6.28h3.55v0.87h-2.53v1.71h2.37v0.86h-2.37v1.97h2.53V36.81z"/>
		<path class="st5" d="M124.16,36.81v-6.28h1.03v5.4h2.66v0.88H124.16z"/>
		<path class="st5" d="M129.61,36.81v-6.28h1.03v6.28H129.61z"/>
		<path class="st5" d="M135.7,36.81l-1.82-5.25h-0.03c0.05,0.78,0.07,1.51,0.07,2.19v3.06h-0.93v-6.28h1.45l1.74,5h0.03l1.8-5h1.45
			v6.28h-0.99V33.7c0-0.31,0.01-0.72,0.02-1.22c0.02-0.5,0.03-0.81,0.04-0.91h-0.03l-1.89,5.24H135.7z"/>
		<path class="st5" d="M141.8,36.81v-6.28h1.03v6.28H141.8z"/>
		<path class="st5" d="M147.34,36.81h-1.03v-5.4h-1.85v-0.88h4.72v0.88h-1.85V36.81z"/>
		<path class="st5" d="M154.39,36.81h-3.55v-6.28h3.55v0.87h-2.53v1.71h2.37v0.86h-2.37v1.97h2.53V36.81z"/>
		<path class="st5" d="M161.54,33.6c0,1.04-0.29,1.83-0.86,2.38c-0.58,0.55-1.41,0.82-2.49,0.82h-1.76v-6.28h1.94
			c1,0,1.78,0.27,2.33,0.81C161.27,31.87,161.54,32.63,161.54,33.6z M160.46,33.64c0-1.5-0.7-2.26-2.11-2.26h-0.89v4.56h0.73
			C159.71,35.94,160.46,35.17,160.46,33.64z"/>
	</g>
</g>
</svg>
